<svg xmlns="http://www.w3.org/2000/svg" viewBox="0 0 3758 3758" role="img" aria-label="Градстройаудит">
  <path fill="#0d2130" d="M0 3754.93l941.08 2.93-.06-1412.04 470.68-350.6c167.36-119.71 298.62-230.33 466.26-350.89l700.32-524.89c69.98-54.91 170.77-137.25 234.38-173.5 43.92 11.85 409.65 295.19 473.26 342.97 81.91 61.52 151.58 112.64 233.25 175.18 47.17 36.12 185.66 149.45 236.94 170.56l2.05-1631.43L3.16 0 0 3754.93z"/>
  <path fill="#a3d562" d="M2212.95 3757l1542.66-1.02c11.73-171.67 2.67-685.35 2.6-891.54 0-87.37-2.55-75.45-57.17-116.05-41.4-30.78-65.91-48.65-104.45-77.87l-607.17-455.27c-50.38 17.96-272.22 196.57-331.44 240.94-116.11 87-220.25 165.88-334.96 251.02-149.21 110.74-111.82 30.18-111.82 464.62 0 187.09-9.64 401.38 1.74 585.16z"/>
</svg>
