<?xml version="1.0" encoding="UTF-8"?>
<!DOCTYPE svg PUBLIC "-//W3C//DTD SVG 1.1//EN" "http://www.w3.org/Graphics/SVG/1.1/DTD/svg11.dtd">
<!-- Creator: CorelDRAW 2020 (64-Bit) -->
<svg xmlns="http://www.w3.org/2000/svg" xml:space="preserve" width="307.713mm" height="53.1293mm" version="1.1" style="shape-rendering:geometricPrecision; text-rendering:geometricPrecision; image-rendering:optimizeQuality; fill-rule:evenodd; clip-rule:evenodd"
viewBox="0 0 13246.3 2287.09"
 xmlns:xlink="http://www.w3.org/1999/xlink"
 xmlns:xodm="http://www.corel.com/coreldraw/odm/2003">
 <defs>
  <style type="text/css">
   <![CDATA[
    .fil1 {fill:#0D2130}
    .fil2 {fill:#2B774A}
    .fil0 {fill:#0F2435;fill-rule:nonzero}
   ]]>
  </style>
 </defs>
 <g id="Слой_x0020_1">
  <metadata id="CorelCorpID_0Corel-Layer"/>
  <polygon class="fil0" points="3411.16,1060.45 3411.16,1238.91 3059.67,1238.91 3059.67,2006.79 2873.1,2006.79 2873.1,1060.45 "/>
  <path id="1" class="fil0" d="M3765.36 1311.91c91.03,0 168.76,34.48 233.21,103.42 64.44,68.95 96.66,153.44 96.66,253.49 0,100.04 -32.22,184.53 -96.66,253.48 -64.44,68.94 -142.17,103.42 -233.21,103.42 -94.63,0 -167.64,-32.9 -219.01,-98.69l0 350.14 -174.39 0 0 -946.34 174.39 0 0 79.76c51.37,-65.79 124.38,-98.69 219.01,-98.69zm-166.28 494.13c35.15,35.6 79.76,53.4 133.84,53.4 54.08,0 98.91,-17.8 134.51,-53.4 35.6,-35.6 53.4,-81.34 53.4,-137.22 0,-55.88 -17.8,-101.62 -53.4,-137.22 -35.6,-35.6 -80.44,-53.4 -134.51,-53.4 -54.08,0 -98.69,17.8 -133.84,53.4 -35.15,35.6 -52.72,81.34 -52.72,137.22 0,55.88 17.58,101.62 52.72,137.22z"/>
  <path id="2" class="fil0" d="M4731.98 1330.84l174.39 0 0 675.95 -174.39 0 0 -79.76c-52.27,65.79 -125.73,98.69 -220.36,98.69 -90.13,0 -167.41,-34.48 -231.85,-103.42 -64.44,-68.95 -96.66,-153.44 -96.66,-253.48 0,-100.04 32.22,-184.54 96.66,-253.49 64.44,-68.94 141.73,-103.42 231.85,-103.42 94.63,0 168.09,32.9 220.36,98.69l0 -79.76zm-321.75 475.2c35.15,35.6 79.76,53.4 133.84,53.4 54.08,0 98.91,-17.8 134.51,-53.4 35.6,-35.6 53.4,-81.34 53.4,-137.22 0,-55.88 -17.8,-101.62 -53.4,-137.22 -35.6,-35.6 -80.44,-53.4 -134.51,-53.4 -54.08,0 -98.69,17.8 -133.84,53.4 -35.15,35.6 -52.72,81.34 -52.72,137.22 0,55.88 17.58,101.62 52.72,137.22z"/>
  <path id="3" class="fil0" d="M5672.9 1843.21l89.23 0 0 344.74 -170.34 0 0 -181.16 -419.09 0 0 181.16 -170.34 0 0 -344.74 82.47 0c38.75,-57.68 58.13,-137.44 58.13,-239.29l0 -273.08 529.95 0 0 512.37zm-401.51 0l231.17 0 0 -355.55 -189.27 0 0 116.26c0,95.54 -13.97,175.3 -41.91,239.29z"/>
  <path id="4" class="fil0" d="M6167.71 2025.72c-101.85,0 -186.79,-34.25 -254.84,-102.75 -68.05,-68.5 -102.07,-153.21 -102.07,-254.16 0,-100.95 34.02,-185.66 102.07,-254.16 68.05,-68.5 152.99,-102.75 254.84,-102.75 65.79,0 125.72,15.77 179.8,47.32 54.08,31.55 95.09,73.9 123.03,127.08l-150.06 87.87c-13.52,-27.94 -34.02,-50.02 -61.51,-66.24 -27.49,-16.22 -58.36,-24.33 -92.6,-24.33 -52.27,0 -95.54,17.35 -129.78,52.05 -34.25,34.7 -51.37,79.09 -51.37,133.16 0,53.17 17.12,97.11 51.37,131.81 34.25,34.7 77.51,52.05 129.78,52.05 35.15,0 66.47,-7.89 93.96,-23.66 27.49,-15.77 47.99,-37.63 61.51,-65.57l151.41 86.52c-29.74,53.18 -71.65,95.76 -125.73,127.76 -54.08,31.99 -114.01,47.99 -179.8,47.99z"/>
  <polygon id="5" class="fil0" points="7093.76,1330.84 7093.76,1498.47 6882.86,1498.47 6882.86,2006.79 6708.46,2006.79 6708.46,1498.47 6494.86,1498.47 6494.86,1330.84 "/>
  <path id="6" class="fil0" d="M7580.44 1311.91c91.03,0 168.76,34.48 233.21,103.42 64.44,68.95 96.66,153.44 96.66,253.49 0,100.04 -32.22,184.53 -96.66,253.48 -64.44,68.94 -142.17,103.42 -233.21,103.42 -94.63,0 -167.64,-32.9 -219.01,-98.69l0 350.14 -174.39 0 0 -946.34 174.39 0 0 79.76c51.37,-65.79 124.38,-98.69 219.01,-98.69zm-166.28 494.13c35.15,35.6 79.76,53.4 133.84,53.4 54.08,0 98.91,-17.8 134.51,-53.4 35.6,-35.6 53.4,-81.34 53.4,-137.22 0,-55.88 -17.8,-101.62 -53.4,-137.22 -35.6,-35.6 -80.44,-53.4 -134.51,-53.4 -54.08,0 -98.69,17.8 -133.84,53.4 -35.15,35.6 -52.72,81.34 -52.72,137.22 0,55.88 17.58,101.62 52.72,137.22z"/>
  <path id="7" class="fil0" d="M8609.25 1922.3c-69.4,68.94 -154.11,103.42 -254.16,103.42 -100.04,0 -184.54,-34.48 -253.49,-103.42 -68.94,-68.95 -103.42,-153.44 -103.42,-253.48 0,-100.04 34.47,-184.54 103.42,-253.49 68.95,-68.94 153.44,-103.42 253.49,-103.42 100.04,0 184.76,34.48 254.16,103.42 69.4,68.95 104.1,153.44 104.1,253.49 0,100.04 -34.7,184.53 -104.1,253.48zm-384.62 -119.65c34.7,35.15 78.19,52.72 130.46,52.72 52.27,0 95.98,-17.57 131.14,-52.72 35.15,-35.15 52.72,-79.76 52.72,-133.83 0,-54.08 -17.58,-98.69 -52.72,-133.84 -35.15,-35.15 -78.86,-52.72 -131.14,-52.72 -52.27,0 -95.76,17.57 -130.46,52.72 -34.7,35.15 -52.05,79.76 -52.05,133.84 0,54.08 17.35,98.69 52.05,133.83z"/>
  <path id="8" class="fil0" d="M8949.93 1244.31l0 -151.42 392.06 0 0 151.42 -392.06 0zm374.48 86.52l129.78 0 0 675.95 -170.34 0 0 -383.94 -317.7 383.94 -129.78 0 0 -675.95 170.34 0 0 383.94 317.7 -383.94z"/>
  <path id="9" class="fil0" d="M10127.44 1330.84l174.39 0 0 675.95 -174.39 0 0 -79.76c-52.27,65.79 -125.73,98.69 -220.36,98.69 -90.13,0 -167.41,-34.48 -231.85,-103.42 -64.44,-68.95 -96.66,-153.44 -96.66,-253.48 0,-100.04 32.22,-184.54 96.66,-253.49 64.44,-68.94 141.73,-103.42 231.85,-103.42 94.63,0 168.09,32.9 220.36,98.69l0 -79.76zm-321.75 475.2c35.15,35.6 79.76,53.4 133.84,53.4 54.08,0 98.91,-17.8 134.51,-53.4 35.6,-35.6 53.4,-81.34 53.4,-137.22 0,-55.88 -17.8,-101.62 -53.4,-137.22 -35.6,-35.6 -80.44,-53.4 -134.51,-53.4 -54.08,0 -98.69,17.8 -133.84,53.4 -35.15,35.6 -52.72,81.34 -52.72,137.22 0,55.88 17.58,101.62 52.72,137.22z"/>
  <path id="10" class="fil0" d="M10900.73 1330.84l186.56 0 -246.05 675.95c-68.5,190.17 -187.46,280.3 -356.9,270.38l0 -162.23c45.97,0.9 82.24,-7.66 108.83,-25.69 26.59,-18.02 47.99,-48.22 64.21,-90.58l-273.08 -667.84 185.21 0 181.16 454.24 150.06 -454.24z"/>
  <path id="11" class="fil0" d="M11736.21 1843.21l89.23 0 0 344.74 -170.34 0 0 -181.16 -419.09 0 0 181.16 -170.34 0 0 -344.74 82.47 0c38.75,-57.68 58.13,-137.44 58.13,-239.29l0 -273.08 529.95 0 0 512.37zm-401.51 0l231.17 0 0 -355.55 -189.27 0 0 116.26c0,95.54 -13.97,175.3 -41.91,239.29z"/>
  <polygon id="12" class="fil0" points="12424.33,1330.84 12554.12,1330.84 12554.12,2006.79 12383.77,2006.79 12383.77,1622.85 12066.08,2006.79 11936.3,2006.79 11936.3,1330.84 12106.63,1330.84 12106.63,1714.78 "/>
  <polygon id="13" class="fil0" points="13246.3,1330.84 13246.3,1498.47 13035.4,1498.47 13035.4,2006.79 12861,2006.79 12861,1498.47 12647.4,1498.47 12647.4,1330.84 "/>
  <path class="fil1" d="M-0 2056.14l515.32 1.61 -0.03 -773.21 257.74 -191.98c91.64,-65.55 163.52,-126.13 255.31,-192.14l383.48 -287.42c38.32,-30.07 93.51,-75.15 128.34,-95 24.05,6.49 224.32,161.64 259.15,187.8 44.86,33.69 83,61.68 127.73,95.93 25.83,19.78 101.67,81.83 129.75,93.4l1.12 -893.34 -2056.17 -1.76 -1.73 2056.14z"/>
  <path class="fil2" d="M1030.06 2057.17l1026.15 -0.68c7.8,-114.19 1.77,-455.89 1.73,-593.04 0,-58.12 -1.7,-50.19 -38.03,-77.19 -27.54,-20.47 -43.84,-32.36 -69.48,-51.79l-403.88 -302.84c-33.51,11.95 -181.08,130.76 -220.47,160.27 -77.23,57.87 -146.5,110.34 -222.81,166.98 -99.25,73.66 -74.38,20.07 -74.38,309.06 0,124.45 -6.41,266.99 1.16,389.24z"/>
 </g>
</svg>
