<?xml version="1.0" encoding="UTF-8"?>
<!DOCTYPE svg PUBLIC "-//W3C//DTD SVG 1.1//EN" "http://www.w3.org/Graphics/SVG/1.1/DTD/svg11.dtd">
<!-- Creator: CorelDRAW 2020 (64-Bit) -->
<svg xmlns="http://www.w3.org/2000/svg" xml:space="preserve" width="449.31mm" height="58.0676mm" version="1.1" style="shape-rendering:geometricPrecision; text-rendering:geometricPrecision; image-rendering:optimizeQuality; fill-rule:evenodd; clip-rule:evenodd"
viewBox="0 0 29077.25 3757.86"
 xmlns:xlink="http://www.w3.org/1999/xlink"
 xmlns:xodm="http://www.corel.com/coreldraw/odm/2003">
 <defs>
  <style type="text/css">
   <![CDATA[
    .fil1 {fill:#0D2130}
    .fil2 {fill:#A3D562}
    .fil0 {fill:#0F2435;fill-rule:nonzero}
   ]]>
  </style>
 </defs>
 <g id="Слой_x0020_1">
  <metadata id="CorelCorpID_0Corel-Layer"/>
  <polygon class="fil0" points="6397.82,828.91 6397.82,1172.21 5523.97,1172.21 5523.97,3013.52 5165.07,3013.52 5165.07,828.91 "/>
  <path id="1" class="fil0" d="M7212.37 1412.51c214.3,0 397.39,79.58 549.27,238.75 151.89,159.16 227.83,353.18 227.83,582.04 0,230.94 -75.94,425.48 -227.83,583.6 -151.88,158.13 -334.97,237.19 -549.27,237.19 -237.19,0 -419.24,-87.39 -546.16,-262.16l0 845.76 -337.05 0 0 -2184.62 337.05 0 0 224.7c126.92,-176.85 308.97,-265.27 546.16,-265.27zm-405.71 1178.13c93.62,94.67 211.18,142 352.66,142 141.48,0 259.03,-47.33 352.66,-142 93.62,-94.67 140.44,-213.78 140.44,-357.34 0,-143.56 -46.82,-262.67 -140.44,-357.34 -93.63,-94.67 -211.18,-142 -352.66,-142 -141.48,0 -259.04,47.33 -352.66,142 -93.63,94.67 -140.45,213.78 -140.45,357.34 0,143.56 46.82,262.67 140.45,357.34z"/>
  <path id="2" class="fil0" d="M9531.18 1453.08l337.06 0 0 1560.44 -337.06 0 0 -224.7c-126.92,176.85 -308.97,265.27 -546.16,265.27 -214.3,0 -397.39,-79.58 -549.27,-238.75 -151.89,-159.16 -227.82,-353.18 -227.82,-582.04 0,-230.94 75.94,-425.48 227.82,-583.6 151.88,-158.13 334.97,-237.19 549.27,-237.19 237.19,0 419.24,87.39 546.16,262.16l0 -221.59zm-845.76 1137.56c93.62,94.67 211.18,142 352.66,142 141.48,0 259.03,-47.33 352.66,-142 93.62,-94.67 140.44,-213.78 140.44,-357.34 0,-143.56 -46.82,-262.67 -140.44,-357.34 -93.63,-94.67 -211.18,-142 -352.66,-142 -141.48,0 -259.04,47.33 -352.66,142 -93.63,94.67 -140.45,213.78 -140.45,357.34 0,143.56 46.82,262.67 140.45,357.34z"/>
  <path id="3" class="fil0" d="M11634.65 2695.2l209.1 0 0 736.52 -330.81 0 0 -418.2 -1070.46 0 0 418.2 -330.81 0 0 -736.52 190.37 0c95.71,-135.24 143.56,-323.53 143.56,-564.88l0 -677.23 1189.06 0 0 1242.11zm-961.24 0l630.42 0 0 -933.14 -527.42 0 0 368.26c0,222.62 -34.33,410.92 -102.99,564.88z"/>
  <path id="4" class="fil0" d="M12792.5 3054.09c-235.1,0 -431.2,-79.06 -588.29,-237.19 -157.08,-158.13 -235.62,-352.66 -235.62,-583.6 0,-233.03 78.54,-428.08 235.62,-585.17 157.09,-157.08 353.18,-235.62 588.29,-235.62 151.89,0 290.24,36.41 415.08,109.23 124.84,72.82 218.46,170.61 280.88,293.37l-290.24 168.53c-35.37,-74.9 -88.94,-133.68 -160.72,-176.33 -71.78,-42.65 -154.49,-63.98 -248.11,-63.98 -137.32,0 -252.27,46.82 -344.85,140.44 -92.59,93.63 -138.89,210.14 -138.89,349.54 0,139.4 46.3,255.91 138.89,349.54 92.58,93.62 207.54,140.44 344.85,140.44 91.55,0 174.25,-21.85 248.11,-65.54 73.86,-43.7 129.51,-101.95 166.97,-174.77l290.24 165.41c-66.58,124.84 -162.29,223.66 -287.12,296.49 -124.84,72.82 -263.19,109.23 -415.08,109.23z"/>
  <polygon id="5" class="fil0" points="14914.7,1453.08 14914.7,1777.66 14405.99,1777.66 14405.99,3013.52 14068.94,3013.52 14068.94,1777.66 13557.11,1777.66 13557.11,1453.08 "/>
  <path id="6" class="fil0" d="M16025.73 1412.51c214.3,0 397.39,79.58 549.27,238.75 151.89,159.16 227.83,353.18 227.83,582.04 0,230.94 -75.94,425.48 -227.83,583.6 -151.88,158.13 -334.97,237.19 -549.27,237.19 -237.19,0 -419.24,-87.39 -546.16,-262.16l0 845.76 -337.05 0 0 -2184.62 337.05 0 0 224.7c126.92,-176.85 308.97,-265.27 546.16,-265.27zm-405.71 1178.13c93.62,94.67 211.18,142 352.66,142 141.48,0 259.03,-47.33 352.66,-142 93.62,-94.67 140.44,-213.78 140.44,-357.34 0,-143.56 -46.82,-262.67 -140.44,-357.34 -93.63,-94.67 -211.18,-142 -352.66,-142 -141.48,0 -259.04,47.33 -352.66,142 -93.63,94.67 -140.45,213.78 -140.45,357.34 0,143.56 46.82,262.67 140.45,357.34z"/>
  <path id="7" class="fil0" d="M17845.2 3054.09c-228.87,0 -423.4,-79.06 -583.6,-237.19 -160.21,-158.13 -240.31,-352.66 -240.31,-583.6 0,-230.94 80.1,-425.48 240.31,-583.6 160.2,-158.13 354.74,-237.19 583.6,-237.19 230.95,0 426,79.06 585.17,237.19 159.16,158.13 238.75,352.66 238.75,583.6 0,230.94 -79.59,425.48 -238.75,583.6 -159.17,158.13 -354.22,237.19 -585.17,237.19zm-346.41 -468.13c93.62,93.62 209.1,140.44 346.41,140.44 137.32,0 252.79,-46.82 346.42,-140.44 93.62,-93.62 140.44,-211.18 140.44,-352.66 0,-141.48 -46.82,-259.04 -140.44,-352.66 -93.63,-93.62 -209.1,-140.44 -346.42,-140.44 -137.32,0 -252.79,46.82 -346.41,140.44 -93.63,93.62 -140.45,211.18 -140.45,352.66 0,141.48 46.82,259.04 140.45,352.66z"/>
  <path id="8" class="fil0" d="M19230.87 1234.63l0 -293.37 873.84 0 0 293.37 -873.84 0zm873.84 218.46l259.04 0 0 1560.44 -330.81 0 0 -992.44 -798.95 992.44 -259.03 0 0 -1560.44 330.81 0 0 989.32 798.94 -989.32z"/>
  <path id="9" class="fil0" d="M21989.73 1453.08l337.06 0 0 1560.44 -337.06 0 0 -224.7c-126.92,176.85 -308.97,265.27 -546.16,265.27 -214.3,0 -397.39,-79.58 -549.27,-238.75 -151.89,-159.16 -227.82,-353.18 -227.82,-582.04 0,-230.94 75.94,-425.48 227.82,-583.6 151.88,-158.13 334.97,-237.19 549.27,-237.19 237.19,0 419.24,87.39 546.16,262.16l0 -221.59zm-845.76 1137.56c93.62,94.67 211.18,142 352.66,142 141.48,0 259.03,-47.33 352.66,-142 93.62,-94.67 140.44,-213.78 140.44,-357.34 0,-143.56 -46.82,-262.67 -140.44,-357.34 -93.63,-94.67 -211.18,-142 -352.66,-142 -141.48,0 -259.04,47.33 -352.66,142 -93.63,94.67 -140.45,213.78 -140.45,357.34 0,143.56 46.82,262.67 140.45,357.34z"/>
  <path id="10" class="fil0" d="M23771.75 1453.08l358.9 0 -599.21 1610.37c-72.82,197.65 -174.77,345.38 -305.84,443.16 -131.08,97.79 -282.96,141.48 -455.65,131.08l0 -315.21c106.11,6.24 191.93,-15.09 257.47,-63.98 65.54,-48.89 118.07,-127.43 157.61,-235.62l9.36 -21.85 -655.38 -1547.96 358.9 0 474.37 1136 399.47 -1136z"/>
  <path id="11" class="fil0" d="M25622.44 2695.2l209.1 0 0 736.52 -330.81 0 0 -418.2 -1070.46 0 0 418.2 -330.81 0 0 -736.52 190.37 0c95.71,-135.24 143.56,-323.53 143.56,-564.88l0 -677.23 1189.06 0 0 1242.11zm-961.24 0l630.42 0 0 -933.14 -527.42 0 0 368.26c0,222.62 -34.33,410.92 -102.99,564.88z"/>
  <polygon id="12" class="fil0" points="27235.93,1453.08 27494.97,1453.08 27494.97,3013.52 27164.16,3013.52 27164.16,2021.08 26365.21,3013.52 26106.18,3013.52 26106.18,1453.08 26436.99,1453.08 26436.99,2442.41 "/>
  <polygon id="13" class="fil0" points="29077.25,1453.08 29077.25,1777.66 28568.55,1777.66 28568.55,3013.52 28231.49,3013.52 28231.49,1777.66 27719.67,1777.66 27719.67,1453.08 "/>
  <path class="fil1" d="M-0 3754.93l941.08 2.93 -0.06 -1412.04 470.68 -350.6c167.36,-119.71 298.62,-230.33 466.26,-350.89l700.32 -524.89c69.98,-54.91 170.77,-137.25 234.38,-173.5 43.92,11.85 409.65,295.19 473.26,342.97 81.91,61.52 151.58,112.64 233.25,175.18 47.17,36.12 185.66,149.45 236.94,170.56l2.05 -1631.43 -3755 -3.22 -3.16 3754.93z"/>
  <path class="fil2" d="M2212.95 3757l1542.66 -1.02c11.73,-171.67 2.67,-685.35 2.6,-891.54 0,-87.37 -2.55,-75.45 -57.17,-116.05 -41.4,-30.78 -65.91,-48.65 -104.45,-77.87l-607.17 -455.27c-50.38,17.96 -272.22,196.57 -331.44,240.94 -116.11,87 -220.25,165.88 -334.96,251.02 -149.21,110.74 -111.82,30.18 -111.82,464.62 0,187.09 -9.64,401.38 1.74,585.16z"/>
 </g>
</svg>
