<?xml version="1.0" encoding="UTF-8"?>
<!DOCTYPE svg PUBLIC "-//W3C//DTD SVG 1.1//EN" "http://www.w3.org/Graphics/SVG/1.1/DTD/svg11.dtd">
<!-- Creator: CorelDRAW 2020 (64-Bit) -->
<svg xmlns="http://www.w3.org/2000/svg" xml:space="preserve" width="307.524mm" height="53.0037mm" version="1.1" style="shape-rendering:geometricPrecision; text-rendering:geometricPrecision; image-rendering:optimizeQuality; fill-rule:evenodd; clip-rule:evenodd"
viewBox="0 0 13230.06 2280.28"
 xmlns:xlink="http://www.w3.org/1999/xlink"
 xmlns:xodm="http://www.corel.com/coreldraw/odm/2003">
 <defs>
  <style type="text/css">
   <![CDATA[
    .fil1 {fill:#0D2130}
    .fil2 {fill:#2B774A}
    .fil0 {fill:#0F2435;fill-rule:nonzero}
   ]]>
  </style>
 </defs>
 <g id="Слой_x0020_1">
  <metadata id="CorelCorpID_0Corel-Layer"/>
  <polygon class="fil0" points="3411.77,1059.8 3411.77,1208.43 3033.47,1208.43 3033.47,2005.56 2878.1,2005.56 2878.1,1059.8 "/>
  <path id="1" class="fil0" d="M3764.41 1312.45c92.78,0 172.04,34.46 237.79,103.36 65.75,68.91 98.63,152.9 98.63,251.98 0,99.98 -32.88,184.2 -98.63,252.65 -65.75,68.46 -145.02,102.68 -237.79,102.68 -102.68,0 -181.49,-37.83 -236.44,-113.49l0 366.14 -145.92 0 0 -945.76 145.92 0 0 97.28c54.94,-76.56 133.75,-114.84 236.44,-114.84zm-175.64 510.03c40.53,40.98 91.42,61.48 152.67,61.48 61.25,0 112.14,-20.5 152.67,-61.48 40.53,-40.98 60.8,-92.55 60.8,-154.7 0,-62.15 -20.26,-113.72 -60.8,-154.7 -40.53,-40.98 -91.42,-61.47 -152.67,-61.47 -61.24,0 -112.14,20.49 -152.67,61.47 -40.53,40.98 -60.8,92.55 -60.8,154.7 0,62.15 20.26,113.71 60.8,154.7z"/>
  <path id="2" class="fil0" d="M4768.26 1330.02l145.91 0 0 675.54 -145.91 0 0 -97.28c-54.94,76.56 -133.76,114.84 -236.44,114.84 -92.78,0 -172.04,-34.46 -237.79,-103.36 -65.75,-68.91 -98.63,-152.9 -98.63,-251.97 0,-99.98 32.88,-184.2 98.63,-252.65 65.75,-68.46 145.02,-102.68 237.79,-102.68 102.68,0 181.5,37.83 236.44,113.49l0 -95.93zm-366.14 492.47c40.53,40.98 91.42,61.48 152.67,61.48 61.25,0 112.14,-20.5 152.67,-61.48 40.53,-40.98 60.8,-92.55 60.8,-154.7 0,-62.15 -20.27,-113.72 -60.8,-154.7 -40.53,-40.98 -91.42,-61.47 -152.67,-61.47 -61.25,0 -112.14,20.49 -152.67,61.47 -40.53,40.98 -60.8,92.55 -60.8,154.7 0,62.15 20.27,113.71 60.8,154.7z"/>
  <path id="3" class="fil0" d="M5678.88 1867.75l90.52 0 0 318.86 -143.21 0 0 -181.05 -463.42 0 0 181.05 -143.21 0 0 -318.86 82.42 0c41.43,-58.55 62.15,-140.06 62.15,-244.55l0 -293.18 514.76 0 0 537.73zm-416.13 0l272.92 0 0 -403.97 -228.33 0 0 159.43c0,96.38 -14.86,177.89 -44.58,244.55z"/>
  <path id="4" class="fil0" d="M6180.13 2023.13c-101.78,0 -186.67,-34.23 -254.68,-102.68 -68.01,-68.46 -102.01,-152.67 -102.01,-252.65 0,-100.88 34,-185.33 102.01,-253.33 68,-68 152.9,-102.01 254.68,-102.01 65.75,0 125.65,15.76 179.7,47.29 54.04,31.53 94.57,73.86 121.59,127l-125.65 72.96c-15.31,-32.43 -38.5,-57.87 -69.58,-76.34 -31.07,-18.46 -66.88,-27.7 -107.41,-27.7 -59.45,0 -109.21,20.26 -149.3,60.8 -40.08,40.53 -60.12,90.97 -60.12,151.32 0,60.35 20.04,110.79 60.12,151.32 40.08,40.53 89.85,60.8 149.3,60.8 39.63,0 75.43,-9.46 107.41,-28.37 31.97,-18.91 56.07,-44.14 72.28,-75.66l125.65 71.6c-28.82,54.04 -70.25,96.83 -124.3,128.35 -54.04,31.53 -113.94,47.29 -179.7,47.29z"/>
  <polygon id="5" class="fil0" points="7098.87,1330.02 7098.87,1470.53 6878.64,1470.53 6878.64,2005.56 6732.73,2005.56 6732.73,1470.53 6511.15,1470.53 6511.15,1330.02 "/>
  <path id="6" class="fil0" d="M7579.85 1312.45c92.78,0 172.04,34.46 237.79,103.36 65.75,68.91 98.63,152.9 98.63,251.98 0,99.98 -32.88,184.2 -98.63,252.65 -65.75,68.46 -145.02,102.68 -237.79,102.68 -102.68,0 -181.49,-37.83 -236.44,-113.49l0 366.14 -145.92 0 0 -945.76 145.92 0 0 97.28c54.94,-76.56 133.75,-114.84 236.44,-114.84zm-175.64 510.03c40.53,40.98 91.42,61.48 152.67,61.48 61.25,0 112.14,-20.5 152.67,-61.48 40.53,-40.98 60.8,-92.55 60.8,-154.7 0,-62.15 -20.26,-113.72 -60.8,-154.7 -40.53,-40.98 -91.42,-61.47 -152.67,-61.47 -61.24,0 -112.14,20.49 -152.67,61.47 -40.53,40.98 -60.8,92.55 -60.8,154.7 0,62.15 20.26,113.71 60.8,154.7z"/>
  <path id="7" class="fil0" d="M8367.53 2023.13c-99.08,0 -183.3,-34.23 -252.65,-102.68 -69.36,-68.46 -104.03,-152.67 -104.03,-252.65 0,-99.98 34.68,-184.2 104.03,-252.65 69.35,-68.46 153.57,-102.68 252.65,-102.68 99.98,0 184.42,34.23 253.33,102.68 68.91,68.46 103.36,152.67 103.36,252.65 0,99.98 -34.45,184.2 -103.36,252.65 -68.9,68.46 -153.34,102.68 -253.33,102.68zm-149.97 -202.66c40.53,40.53 90.53,60.8 149.97,60.8 59.45,0 109.44,-20.26 149.97,-60.8 40.53,-40.53 60.8,-91.42 60.8,-152.67 0,-61.25 -20.27,-112.14 -60.8,-152.67 -40.53,-40.53 -90.52,-60.8 -149.97,-60.8 -59.45,0 -109.44,20.26 -149.97,60.8 -40.53,40.53 -60.8,91.42 -60.8,152.67 0,61.24 20.27,112.14 60.8,152.67z"/>
  <path id="8" class="fil0" d="M8967.41 1235.45l0 -127 378.3 0 0 127 -378.3 0zm378.3 94.57l112.14 0 0 675.54 -143.21 0 0 -429.64 -345.88 429.64 -112.14 0 0 -675.54 143.21 0 0 428.29 345.88 -428.29z"/>
  <path id="9" class="fil0" d="M10161.76 1330.02l145.91 0 0 675.54 -145.91 0 0 -97.28c-54.94,76.56 -133.76,114.84 -236.44,114.84 -92.78,0 -172.04,-34.46 -237.79,-103.36 -65.75,-68.91 -98.63,-152.9 -98.63,-251.97 0,-99.98 32.88,-184.2 98.63,-252.65 65.75,-68.46 145.02,-102.68 237.79,-102.68 102.68,0 181.5,37.83 236.44,113.49l0 -95.93zm-366.14 492.47c40.53,40.98 91.42,61.48 152.67,61.48 61.25,0 112.14,-20.5 152.67,-61.48 40.53,-40.98 60.8,-92.55 60.8,-154.7 0,-62.15 -20.27,-113.72 -60.8,-154.7 -40.53,-40.98 -91.42,-61.47 -152.67,-61.47 -61.25,0 -112.14,20.49 -152.67,61.47 -40.53,40.98 -60.8,92.55 -60.8,154.7 0,62.15 20.27,113.71 60.8,154.7z"/>
  <path id="10" class="fil0" d="M10933.23 1330.02l155.38 0 -259.41 697.16c-31.53,85.57 -75.66,149.52 -132.41,191.85 -56.74,42.33 -122.5,61.25 -197.26,56.74l0 -136.46c45.94,2.7 83.09,-6.53 111.46,-27.7 28.37,-21.17 51.12,-55.17 68.23,-102.01l4.05 -9.46 -283.73 -670.14 155.38 0 205.37 491.79 172.94 -491.79z"/>
  <path id="11" class="fil0" d="M11734.41 1867.75l90.52 0 0 318.86 -143.21 0 0 -181.05 -463.42 0 0 181.05 -143.21 0 0 -318.86 82.42 0c41.43,-58.55 62.15,-140.06 62.15,-244.55l0 -293.18 514.76 0 0 537.73zm-416.13 0l272.92 0 0 -403.97 -228.33 0 0 159.43c0,96.38 -14.86,177.89 -44.58,244.55z"/>
  <polygon id="12" class="fil0" points="12432.92,1330.02 12545.06,1330.02 12545.06,2005.56 12401.85,2005.56 12401.85,1575.92 12055.97,2005.56 11943.83,2005.56 11943.83,1330.02 12087.04,1330.02 12087.04,1758.31 "/>
  <polygon id="13" class="fil0" points="13230.06,1330.02 13230.06,1470.53 13009.83,1470.53 13009.83,2005.56 12863.92,2005.56 12863.92,1470.53 12642.33,1470.53 12642.33,1330.02 "/>
  <path class="fil1" d="M-0 2054.87l515 1.6 -0.03 -772.73 257.58 -191.87c91.59,-65.51 163.42,-126.05 255.16,-192.02l383.25 -287.25c38.3,-30.05 93.45,-75.11 128.26,-94.94 24.04,6.48 224.18,161.54 258.99,187.68 44.83,33.67 82.95,61.64 127.65,95.87 25.81,19.77 101.6,81.78 129.67,93.34l1.12 -892.8 -2054.91 -1.76 -1.73 2054.87z"/>
  <path class="fil2" d="M1029.43 2055.91l1025.53 -0.68c7.8,-114.12 1.77,-455.61 1.73,-592.67 0,-58.08 -1.7,-50.16 -38,-77.15 -27.52,-20.46 -43.81,-32.34 -69.44,-51.76l-403.63 -302.65c-33.49,11.94 -180.97,130.68 -220.33,160.17 -77.18,57.84 -146.41,110.28 -222.67,166.87 -99.19,73.62 -74.33,20.06 -74.33,308.87 0,124.37 -6.41,266.83 1.16,389z"/>
 </g>
</svg>
